<svg xmlns:x="http://ns.adobe.com/Extensibility/1.0/" xmlns:i="http://ns.adobe.com/AdobeIllustrator/10.0/" xmlns:graph="http://ns.adobe.com/Graphs/1.0/" xmlns="http://www.w3.org/2000/svg" xmlns:xlink="http://www.w3.org/1999/xlink" xmlns:a="http://ns.adobe.com/AdobeSVGViewerExtensions/3.0/" version="1.1" x="0px" y="0px" viewBox="0 0 100 125" style="enable-background:new 0 0 100 100;" xml:space="preserve"><style type="text/css">

	.st0{fill-rule:evenodd;clip-rule:evenodd;}

</style><path class="st0" d="M19.742,42.358c2.002,0,3.631,1.628,3.631,3.63c0,2.001-1.629,3.63-3.631,3.63c-2.003,0-3.631-1.629-3.631-3.63  C16.111,43.986,17.739,42.358,19.742,42.358L19.742,42.358z M19.742,53.134c3.939,0,7.146-3.206,7.146-7.146  c0-3.94-3.207-7.146-7.146-7.146s-7.146,3.206-7.146,7.146C12.596,49.928,15.803,53.134,19.742,53.134L19.742,53.134z   M81.996,95.281V78.813l14.018-5.451v16.471L81.996,95.281L81.996,95.281z M64.467,73.363l2.253,0.875v4.219  c0,0.752,0.478,1.42,1.19,1.664l5.992,2.047c0.184,0.062,0.377,0.093,0.566,0.093c0.362,0,0.721-0.111,1.023-0.328  c0.461-0.33,0.736-0.861,0.736-1.43v-2.567l2.252,0.877v16.468l-14.014-5.449V73.363L64.467,73.363z M80.238,65.863l0.953,0.37  l-12.681,4.932l-0.953-0.371L80.238,65.863L80.238,65.863z M80.238,75.723l12.681-4.93l-0.948-0.371l-12.686,4.932L80.238,75.723  L80.238,75.723z M70.236,75.604v1.594l2.478,0.848v-1.479L70.236,75.604L70.236,75.604z M73.363,73.048l1.072,0.418l12.682-4.93  l-1.074-0.418L73.363,73.048L73.363,73.048z M98.407,69.154l-17.533-6.817c-0.408-0.157-0.862-0.157-1.272,0l-17.529,6.817  c-0.676,0.264-1.121,0.915-1.121,1.639v20.242c0,0.725,0.445,1.375,1.121,1.639l17.529,6.816c0.204,0.08,0.422,0.119,0.637,0.119  c0.217,0,0.434-0.04,0.636-0.119l17.533-6.816c0.673-0.264,1.124-0.915,1.124-1.639V70.793  C99.531,70.068,99.08,69.418,98.407,69.154L98.407,69.154z M35.5,96.093H3.984v-2.647H35.5V96.093L35.5,96.093z M10.917,57.457  c2.446,1.885,5.507,3.01,8.825,3.01s6.379-1.125,8.825-3.01l2.954,32.473H7.963L10.917,57.457L10.917,57.457z M19.742,35.025  c-6.044,0-10.963,4.917-10.963,10.963c0,6.045,4.919,10.962,10.963,10.962s10.963-4.917,10.963-10.962  C30.705,39.942,25.786,35.025,19.742,35.025L19.742,35.025z M55.516,3.906c3.478,0,6.31,2.83,6.31,6.308  c0,3.479-2.832,6.31-6.31,6.31c-3.479,0-6.309-2.83-6.309-6.31C49.207,6.736,52.037,3.906,55.516,3.906L55.516,3.906z   M80.238,36.533c-1.217,0-2.396,0.16-3.521,0.456v-2.026c0-0.106,0.092-0.199,0.199-0.199h6.646c0.105,0,0.199,0.093,0.199,0.199  v2.026C82.636,36.693,81.456,36.533,80.238,36.533L80.238,36.533z M90.553,50.357c0,2.389-0.811,4.636-2.247,6.432v-6.173  c0-0.627-0.332-1.208-0.885-1.522l-6.305-3.643c-0.271-0.156-0.573-0.235-0.878-0.235c-0.303,0-0.605,0.079-0.879,0.235l-6.31,3.643  c-0.543,0.314-0.878,0.895-0.878,1.522v6.173c-1.438-1.795-2.242-4.043-2.242-6.432c0-5.684,4.624-10.309,10.309-10.309  C85.924,40.048,90.553,44.673,90.553,50.357L90.553,50.357z M64.711,13.67c-0.997,2.641-3.099,4.744-5.738,5.739l15.229,13.024  c0.678-0.726,1.642-1.185,2.714-1.185h2.83L64.711,13.67L64.711,13.67z M53.307,19.786c-3.646-0.841-6.521-3.716-7.363-7.363  l-23.907,19.27c6.151,0.984,11.017,5.852,12.001,12L53.307,19.786L53.307,19.786z M37.257,89.93h-2.206l-3.267-35.91  c0.882-1.32,1.556-2.794,1.967-4.371L56.263,21.72l16.938,14.483v2.263c-4.06,2.411-6.787,6.838-6.787,11.892  c0,4.841,2.467,9.249,6.596,11.785c0.543,0.334,1.222,0.348,1.779,0.038c0.555-0.311,0.899-0.899,0.899-1.535v-9.013l4.55-2.628  l4.551,2.627v9.014c0,0.636,0.346,1.224,0.899,1.535c0.269,0.148,0.563,0.223,0.858,0.223c0.319,0,0.635-0.086,0.921-0.26  c4.125-2.537,6.594-6.943,6.594-11.785c0-5.054-2.727-9.48-6.788-11.892v-3.502c0-1.733-1.191-3.189-2.801-3.597L65.247,8.889  c-0.649-4.792-4.765-8.499-9.731-8.499c-4.615,0-8.495,3.198-9.544,7.494l-29.89,24.094c-6.217,1.626-10.818,7.29-10.818,14.01  c0,2.969,0.898,5.73,2.438,8.03L4.434,89.93H2.227c-0.972,0-1.758,0.785-1.758,1.758v6.164c0,0.97,0.786,1.758,1.758,1.758h35.03  c0.972,0,1.759-0.788,1.759-1.758v-6.164C39.016,90.714,38.229,89.93,37.257,89.93z"/></svg>